<?xml version="1.0" encoding="UTF-8"?>
<svg version="1.1" xmlns="http://www.w3.org/2000/svg" width="2048" height="2048">
<path d="M0 0 C3.14939042 0.00564569 6.29877545 0.00846289 9.44816971 0.0110817 C40.22167134 0.04826962 70.81271475 0.48468176 101.47548294 3.31805801 C103.47579274 3.49694482 105.47611874 3.67565053 107.4764595 3.85419083 C202.94412352 12.49490527 296.90224278 32.75637468 446.47548294 90.31805801 C447.61952591 90.82514297 448.76356888 91.33222794 449.94227982 91.85467911 C476.85618095 103.86198231 503.44357945 116.96523289 528.90028763 131.82538223 C531.50900076 133.33748615 534.13335182 134.81811805 536.76454544 136.29071426 C566.4411831 152.93443505 595.1796693 171.99769157 622.47548294 192.31805801 C623.15707474 192.82240372 623.83866653 193.32674942 624.54091263 193.84637833 C641.77051437 206.60096864 658.46086025 219.97701117 674.77968216 233.87665176 C676.4778314 235.32005417 678.18138487 236.75687224 679.88563919 238.19305801 C686.8185835 244.05856611 693.55549346 250.09111924 700.15077591 256.33490372 C703.11860023 259.14124469 706.11590583 261.88711513 709.21400833 264.54950333 C713.38394814 268.18954822 717.3225422 272.02029666 721.22938919 275.93915176 C721.93393738 276.64274323 722.63848557 277.34633469 723.3643837 278.0712471 C724.84201661 279.54820449 726.31840751 281.02640544 727.79359818 282.50580215 C730.03214775 284.74970886 732.27598767 286.98822506 734.52040482 289.22626114 C735.96538698 290.67190419 737.41005886 292.11785747 738.85438919 293.56415176 C739.51499847 294.22273682 740.17560776 294.88132187 740.8562355 295.55986404 C744.68638942 299.40905091 748.33852062 303.36254347 751.8772316 307.48169327 C754.60761784 310.61886256 757.49010254 313.61242719 760.35048294 316.63055801 C765.18077231 321.76695663 769.79431664 326.99462923 774.19813919 332.50555801 C776.91161887 335.85668214 779.71940021 339.11785617 782.53798294 342.38055801 C787.31472336 347.92754782 791.97182363 353.54551057 796.47548294 359.31805801 C797.20767044 360.25391739 797.93985794 361.18977676 798.69423294 362.15399551 C823.47988961 394.10174129 845.95620258 427.4858215 866.47548294 462.31805801 C866.95453079 463.12903946 867.43357864 463.9400209 867.9271431 464.77557755 C893.23702895 507.79810095 914.40614112 553.44024732 931.47548294 600.31805801 C931.84156662 601.31962936 931.84156662 601.31962936 932.21504593 602.34143448 C939.68867726 622.79555168 946.61012093 643.33597042 952.47548294 664.31805801 C952.67486465 665.03050674 952.87424637 665.74295547 953.07966995 666.47699356 C974.72796128 744.09554089 985.63080615 823.8128977 946.47548294 1198.31805801 C946.11873489 1199.47791214 946.11873489 1199.47791214 945.75477982 1200.66119766 C933.20558374 1241.38054834 917.59675425 1280.75072717 899.47548294 1319.31805801 C898.96227493 1320.41295547 898.44906693 1321.50785294 897.92030716 1322.63592911 C891.03121531 1337.28389471 883.78621683 1351.65406146 875.88612747 1365.78290176 C873.38506661 1370.27771243 870.9321461 1374.79887176 868.47548294 1379.31805801 C864.69271843 1377.74467167 862.27670531 1375.38132981 859.38619804 1372.51118183 C858.63380339 1371.76809085 858.63380339 1371.76809085 857.86620885 1371.00998792 C856.17926969 1369.34143955 854.49950643 1367.6658488 852.81962967 1365.99019241 C851.60246577 1364.78320605 850.38488514 1363.57663981 849.16692293 1362.37045902 C845.81544721 1359.04875077 842.4703185 1355.72071379 839.12626338 1352.39153731 C836.25876456 1349.5384114 833.38759075 1346.68899831 830.51636966 1343.83961905 C820.23449951 1333.63587469 809.9671877 1323.4175327 799.70204544 1313.19696426 C798.06665493 1311.56887814 796.43125845 1309.940798 794.795856 1308.31272388 C779.53894314 1293.12347205 764.28684886 1277.92939059 749.04481316 1262.72520924 C745.51444747 1259.20376257 741.98401773 1255.68238014 738.45351028 1252.16107559 C737.57600693 1251.28585127 736.69850357 1250.41062694 735.7944092 1249.50888067 C721.56815041 1235.32101639 707.31622228 1221.15922402 693.05384536 1207.0076778 C678.41847578 1192.48510674 663.8076688 1177.93818078 649.22031343 1163.36737961 C641.02641088 1155.18406259 632.82182279 1147.01210315 624.5893631 1138.86755943 C617.58074896 1131.93371286 610.59441053 1124.97837759 603.63650878 1117.99362815 C600.08439063 1114.42918633 596.5224718 1110.87621725 592.93161011 1107.35077286 C589.64551585 1104.12406535 586.39073826 1100.8689034 583.15846924 1097.58830451 C581.98290849 1096.40584875 580.7962113 1095.23434203 579.59771998 1094.07513399 C570.63998191 1085.39358012 570.63998191 1085.39358012 570.23131919 1080.23738658 C570.72076562 1077.41979165 571.45480033 1074.98263222 572.47548294 1072.31805801 C572.7362764 1071.04881485 572.99706985 1069.77957169 573.26576614 1068.47186661 C573.5167305 1067.31509415 573.76769485 1066.15832169 574.02626419 1064.96649551 C590.41447828 988.46086422 594.41225169 909.91072073 559.47548294 727.31805801 C559.26901138 726.67672928 559.06253983 726.03540054 558.84981155 725.3746376 C545.6822159 684.57696753 528.41069632 645.18941997 506.47548294 608.31805801 C505.90056107 607.34658829 505.32563919 606.37511856 504.73329544 605.37421036 C497.78841152 593.67746399 490.62317316 582.19159877 482.74159622 571.10174942 C481.50633216 569.36151818 480.28461458 567.61247627 479.06532669 565.86102676 C469.37043045 552.01512645 458.90856937 538.72243085 447.86268997 525.93182755 C446.36783176 524.19282494 444.88764213 522.4420233 443.40907669 520.68915176 C438.54560695 514.93927422 433.66553666 509.33817144 428.25282669 504.09149551 C426.47680863 502.31938079 424.85113491 500.47829654 423.22548294 498.56805801 C416.62925659 490.9152279 409.3486836 483.76077019 401.65517044 477.21649551 C399.33809472 475.19839731 397.09386897 473.11515195 394.8490181 471.0175209 C388.59331554 465.17578534 382.15432011 459.675042 375.47548294 454.31805801 C374.22419043 453.2883767 372.97427949 452.25701502 371.72548294 451.22430801 C371.05428421 450.67186417 370.38308548 450.11942032 369.69154739 449.55023575 C368.40374032 448.49026312 367.11815044 447.42758638 365.83559036 446.3612709 C354.79967528 437.32354593 342.83669854 429.4087413 330.97548294 421.50555801 C330.32629898 421.07296677 329.67711502 420.64037552 329.00825882 420.19467545 C257.9179234 372.92724593 176.96112142 342.52265294 51.47548294 326.31805801 C50.82444595 326.27569016 50.17340897 326.2333223 49.50264359 326.18967056 C36.57438182 325.37100831 23.67787453 325.11562396 10.72548294 325.13055801 C9.74614792 325.13116226 8.7668129 325.13176651 7.75780106 325.13238907 C-73.4003469 325.26733038 -155.44770103 341.85482819 -229.52451706 375.31805801 C-230.72415085 375.85688614 -231.92378464 376.39571426 -233.15977097 376.95087051 C-250.33979525 384.690536 -267.14527432 392.9809124 -283.52451706 402.31805801 C-284.36031296 402.79388321 -285.19610886 403.2697084 -286.0572319 403.75995255 C-308.12248991 416.43218032 -329.31494409 430.87425213 -349.52451706 446.31805801 C-350.16131393 446.80322891 -350.79811081 447.28839981 -351.45420456 447.78827286 C-363.08736881 456.68801165 -374.20060262 466.20003855 -385.03013229 476.05902481 C-386.57020258 477.45378554 -388.1177288 478.84042344 -389.67710495 480.21356583 C-396.66687768 486.39075008 -403.27453622 492.91502802 -409.85728073 499.52045059 C-411.71593814 501.38449045 -413.5799132 503.24309313 -415.44443893 505.10126114 C-421.35028589 511.00346394 -427.15102852 516.91973362 -432.52451706 523.31805801 C-433.48526269 524.42482538 -434.44747434 525.53032206 -435.41123581 526.63446426 C-494.48423236 594.92784917 -538.05179841 676.57956898 -576.27451706 843.13055801 C-576.37583939 843.89498215 -576.47716171 844.65940628 -576.58155441 845.44699478 C-579.80651109 870.0909084 -580.9082953 894.72227652 -580.84257507 919.55683899 C-580.83691898 921.73075561 -580.83410824 923.90466437 -580.83149338 926.07858658 C-580.79273258 948.26945221 -580.25869973 970.27606895 -577.52451706 992.31805801 C-577.43730392 993.03515945 -577.35009079 993.75226089 -577.26023483 994.49109268 C-566.16979286 1085.25891514 -536.20174351 1171.14502065 -464.52451706 1283.31805801 C-463.98971725 1284.0330043 -463.45491745 1284.74795059 -462.90391159 1285.48456192 C-452.93363861 1298.76727765 -442.72378769 1311.92184258 -431.49326706 1324.16962051 C-429.67795969 1326.1506107 -427.90758922 1328.16132368 -426.14951706 1330.19305801 C-418.00928058 1339.48832805 -409.561656 1348.38089621 -400.83701706 1357.13055801 C-399.50066208 1358.47380142 -399.50066208 1358.47380142 -398.13731003 1359.84418106 C-393.6422875 1364.32875005 -389.09194103 1368.67790361 -384.27378464 1372.81390762 C-381.86701168 1374.88343005 -379.54341224 1377.03932747 -377.21201706 1379.19305801 C-371.80954186 1384.11383103 -366.22214125 1388.74506291 -360.52451706 1393.31805801 C-359.3925292 1394.2419525 -358.26104219 1395.16646091 -357.12998581 1396.09149551 C-293.24256214 1448.10817903 -217.56186805 1486.10552712 68.83876419 1523.54071426 C86.01702842 1521.7746087 102.95198977 1518.97498712 119.90224075 1515.69232559 C120.67476685 1515.54319717 121.44729294 1515.39406876 122.24322891 1515.2404213 C123.67293655 1514.96288734 125.10197952 1514.68189254 126.53012466 1514.39642715 C127.79927376 1514.14853383 129.071316 1513.91480138 130.34630114 1513.69892311 C131.76183478 1513.44571441 133.17030415 1513.1490995 134.56758827 1512.80932426 C137.86631631 1512.16070276 140.36628349 1511.73252509 143.41313756 1513.34092236 C145.41677839 1514.99971792 147.19904344 1516.76127847 148.99576187 1518.6425209 C150.046261 1519.68126201 150.046261 1519.68126201 151.11798233 1520.74098778 C153.45892512 1523.06779939 155.76231807 1525.42853239 158.06752396 1527.79071426 C159.73842223 1529.46607055 161.41153449 1531.13922123 163.086689 1532.81032181 C167.63184204 1537.35687779 172.14553751 1541.93355833 176.65445065 1546.51601791 C180.89827549 1550.82423056 185.17039086 1555.10427971 189.44012236 1559.38678741 C197.90425822 1567.87768391 206.34620072 1576.39029181 214.77406693 1584.91717911 C222.94145509 1593.18041894 231.11773516 1601.43467379 239.30727005 1609.67596817 C239.81115856 1610.18304932 240.31504706 1610.69013046 240.83420492 1611.2125777 C244.36457952 1614.76510436 247.89554147 1618.31704691 251.42665482 1621.86883926 C255.35188929 1625.81713603 259.27697098 1629.76558456 263.20178604 1633.71429825 C263.6784084 1634.19379114 264.15503076 1634.67328404 264.64609622 1635.16730702 C270.77209316 1641.3305752 276.89185437 1647.49993434 283.00483906 1653.67611217 C286.51556145 1657.22305497 290.02806264 1660.76823367 293.54061508 1664.31336403 C295.1653096 1665.95426468 296.78905644 1667.59610429 298.41176796 1669.23896599 C300.63286071 1671.48759002 302.85718204 1673.73297464 305.08218765 1675.97772598 C305.718098 1676.62337037 306.35400835 1677.26901476 307.00918871 1677.93422413 C310.76724344 1681.71817392 314.65747191 1685.27970559 318.69364399 1688.76502526 C320.76100091 1690.56691258 322.72689049 1692.44632777 324.66444778 1694.38676834 C325.39064819 1695.11159409 326.1168486 1695.83641983 326.86505508 1696.58320999 C327.63110565 1697.35285583 328.39715622 1698.12250168 329.18642044 1698.91547012 C330.43175301 1700.16058365 330.43175301 1700.16058365 331.7022438 1701.43085098 C334.42070321 1704.15000194 337.1356125 1706.8726679 339.85048294 1709.59540176 C341.74455153 1711.49133722 343.63881666 1713.38707424 345.53334427 1715.28255081 C349.99396224 1719.746263 354.45202743 1724.21251556 358.90915585 1728.67971188 C363.98826507 1733.7700419 369.07025212 1738.85749471 374.15246964 1743.9447211 C384.59665395 1754.39932651 395.03726294 1764.85749755 405.47548294 1775.31805801 C402.83563616 1778.12419742 400.62511931 1779.22909094 396.97938919 1780.55243301 C395.87506546 1780.95760147 394.77074173 1781.36276993 393.63295364 1781.78021622 C391.85344315 1782.41769791 391.85344315 1782.41769791 390.03798294 1783.06805801 C388.80588089 1783.5156044 387.57377884 1783.96315079 386.30434036 1784.42425919 C382.69772017 1785.73069942 379.08698049 1787.02517535 375.47548294 1788.31805801 C373.86596963 1788.90231256 372.25657361 1789.48689042 370.64735794 1790.07196426 C365.61165573 1791.88508768 360.54697845 1793.60795584 355.47548294 1795.31805801 C354.82789017 1795.5374202 354.18029739 1795.75678238 353.5130806 1795.9827919 C271.07035845 1823.89102267 185.12073518 1841.29094321 87.60048294 1849.06805801 C86.78814194 1849.12722397 85.97580093 1849.18638992 85.13884354 1849.24734879 C79.58659974 1849.6447733 74.03227557 1849.99114616 68.47548294 1850.31805801 C67.70645645 1850.36611588 66.93742996 1850.41417374 66.14509964 1850.4636879 C46.4041755 1851.67186779 26.62032128 1851.56369279 6.85048294 1851.56805801 C5.47357159 1851.5687208 5.47357159 1851.5687208 4.06884384 1851.56939697 C-26.88660889 1851.5771927 -57.66527214 1850.97829409 -88.52451706 1848.31805801 C-89.5436821 1848.23084488 -90.56284714 1848.14363174 -91.61289597 1848.05377579 C-151.7278111 1842.85269125 -211.04004468 1833.22345736 -269.52451706 1818.31805801 C-270.31370529 1818.11781021 -271.10289352 1817.91756241 -271.91599655 1817.71124649 C-321.63459044 1805.07371854 -370.45262789 1788.74370329 -417.52451706 1768.31805801 C-419.26088425 1767.56540665 -419.26088425 1767.56540665 -421.03232956 1766.7975502 C-473.75138726 1743.81262037 -525.30668269 1717.07046188 -572.79258347 1684.50555801 C-574.64029696 1683.23867354 -576.49431606 1681.98135264 -578.34873581 1680.72430801 C-600.90726889 1665.38128009 -622.78308207 1649.06570379 -643.83311081 1631.70965958 C-646.26129307 1629.71187683 -648.70738121 1627.73624378 -651.14951706 1625.75555801 C-660.69069834 1617.9283614 -670.01547525 1609.88928436 -679.04258347 1601.47381973 C-681.90812118 1598.80267557 -684.80107198 1596.18090419 -687.77451706 1593.63055801 C-691.3906914 1590.508189 -694.73002727 1587.15237826 -698.05576706 1583.72430801 C-700.08888822 1581.74265827 -702.15433472 1579.88604493 -704.30186081 1578.03290176 C-708.5776036 1574.32114649 -712.59619119 1570.39460886 -716.58701706 1566.38055801 C-717.58958542 1565.38379044 -717.58958542 1565.38379044 -718.61240768 1564.36688614 C-722.56356115 1560.40805307 -726.31005637 1556.33118781 -729.96372604 1552.09711075 C-731.88981662 1549.9016748 -733.9287554 1547.85125962 -736.02451706 1545.81805801 C-739.41720105 1542.46549022 -742.6155239 1539.02330119 -745.71982956 1535.40399551 C-747.74102982 1533.06780301 -749.81830545 1530.7884095 -751.89951706 1528.50555801 C-755.79498276 1524.18896088 -759.49309924 1519.74404671 -763.14951706 1515.22430801 C-765.24090294 1512.66511214 -767.3651907 1510.14214271 -769.51206589 1507.62982559 C-775.72900548 1500.35175079 -781.67448787 1492.89298158 -787.52451706 1485.31805801 C-788.12957077 1484.53898087 -788.73462448 1483.75990372 -789.35801315 1482.95721817 C-798.32687923 1471.39580671 -806.89598525 1459.65662314 -815.046978 1447.50555801 C-816.44156082 1445.44087492 -817.8558834 1443.39206916 -819.28232956 1441.34930801 C-831.34125878 1424.07689077 -842.40507286 1406.18535297 -852.98057175 1387.97235489 C-854.44676448 1385.45172753 -855.92604934 1382.93921319 -857.40732956 1380.42743301 C-885.7335519 1332.03418083 -908.32502862 1280.292339 -926.52451706 1227.31805801 C-926.77826096 1226.58216446 -927.03200485 1225.8462709 -927.29343796 1225.08807755 C-944.83821493 1174.11894718 -957.34857894 1121.58361729 -965.52451706 1068.31805801 C-965.63517502 1067.60037247 -965.74583298 1066.88268692 -965.85984421 1066.14325333 C-979.88607467 974.66916829 -980.46159623 880.38982162 -924.52451706 610.31805801 C-924.17550339 609.31645645 -924.17550339 609.31645645 -923.81943893 608.29462051 C-911.97293149 574.39951424 -897.85942278 541.29922902 -881.53281784 509.31561661 C-880.42636927 507.12361607 -879.34700702 504.91949708 -878.27061081 502.71258926 C-871.8600732 489.61716865 -864.83313817 476.93173733 -857.52451706 464.31805801 C-856.98923386 463.39202774 -856.45395065 462.46599747 -855.90244675 461.51190567 C-843.9513221 440.89385162 -831.1849958 420.8453338 -817.52451706 401.31805801 C-817.08156296 400.68464493 -816.63860886 400.05123184 -816.1822319 399.39862442 C-809.50449827 389.88355947 -802.54719076 380.58033056 -795.52451706 371.31805801 C-795.09670944 370.75232071 -794.66890182 370.1865834 -794.22813034 369.60370255 C-781.39127544 352.65253635 -767.81480378 336.27773552 -753.52451706 320.53290176 C-751.72848177 318.543933 -749.96498403 316.53242607 -748.21201706 314.50555801 C-737.75085194 302.55083442 -726.63942459 291.27515626 -715.39609909 280.05926895 C-712.76195724 277.43052392 -710.13325202 274.79642623 -707.50498581 272.16180801 C-705.80869203 270.46617452 -704.11208836 268.77085098 -702.41514206 267.07587051 C-701.6409996 266.29970383 -700.86685715 265.52353714 -700.06925583 264.72385025 C-695.92312966 260.59535016 -691.69678012 256.6239276 -687.25683212 252.81225967 C-684.67867339 250.58847883 -682.20336787 248.26367289 -679.71201706 245.94305801 C-675.09017875 241.67286542 -670.33027758 237.63580429 -665.42686081 233.68915176 C-662.13487541 230.99973704 -658.92470686 228.22608986 -655.71201706 225.44305801 C-648.82112222 219.50359827 -641.73375317 213.86454066 -634.52451706 208.31805801 C-633.73625534 207.70913712 -632.94799362 207.10021622 -632.13584518 206.47284317 C-620.46028411 197.46274244 -608.6652607 188.69053285 -596.52451706 180.31805801 C-595.70966843 179.75296524 -594.89481979 179.18787247 -594.05527878 178.60565567 C-572.43052398 163.62403855 -550.34073243 149.41926274 -527.52451706 136.31805801 C-526.56142624 135.76440567 -525.59833542 135.21075333 -524.60606003 134.64032364 C-468.18364714 102.33579868 -409.04786237 76.24490122 -347.52451706 55.31805801 C-346.84576523 55.08622818 -346.1670134 54.85439835 -345.46769333 54.61554337 C-267.9013707 28.14558534 -187.01241092 12.3869342 -105.52451706 4.56805801 C-104.48457596 4.46691696 -103.44463486 4.36577591 -102.37318039 4.26156998 C-68.2507348 0.98114483 -34.26520408 -0.06241509 0 0 Z " fill="#7AA529" transform="translate(1018.5245170593262,81.68194198608398)"/>
<path d="M0 0 C35.77586032 -1.05948571 71.54891449 -1.86667755 107.33730642 -2.34900516 C111.58915422 -2.40651817 115.84097138 -2.46605887 120.09277344 -2.52685547 C120.9390136 -2.53892175 121.78525376 -2.55098803 122.65713756 -2.56341995 C136.25267277 -2.76207994 149.83900101 -3.12381909 163.42912348 -3.54902862 C177.43865881 -3.98361007 191.44347648 -4.23558483 205.45947111 -4.32807076 C213.31004886 -4.38485347 221.14152148 -4.51892602 228.98518753 -4.86358261 C281.79059584 -7.11759451 281.79059584 -7.11759451 302.78205226 11.79910795 C312.39280533 20.7240672 320.88432542 30.72325002 328.93671227 41.05395317 C332.55007581 45.62486702 336.51767805 49.30588524 341 53 C342.34477828 54.27216376 343.67680703 55.55827581 344.98327637 56.86975098 C345.66425888 57.55080399 346.34524139 58.23185699 347.04685974 58.93354797 C347.762939 59.65479355 348.47901825 60.37603912 349.21679688 61.11914062 C349.99515396 61.89895798 350.77351105 62.67877533 351.57545471 63.48222351 C353.25215386 65.16270537 354.92769761 66.84434068 356.60218811 68.52702332 C359.25741578 71.19510293 361.91583197 73.85996889 364.57507324 76.52404785 C370.69816102 82.65948705 376.81656876 88.79958365 382.93473053 94.93993378 C388.99592336 101.02299455 395.05913114 107.10403348 401.12574768 113.1816864 C403.73559931 115.79798651 406.34240327 118.41729699 408.94909668 121.03674316 C410.56031614 122.6515976 412.17167754 124.26631043 413.78320312 125.88085938 C414.49928238 126.60210495 415.21536163 127.32335052 415.95314026 128.06645203 C419.84356071 131.95727521 423.84195789 135.63842842 428.0066452 139.23249054 C431.52373126 142.35109386 434.81439969 145.69254232 438.125 149.02734375 C439.27790527 150.18243942 439.27790527 150.18243942 440.45410156 151.36087036 C442.10952005 153.02007108 443.76378314 154.68042521 445.41699219 156.34182739 C448.03861386 158.97630318 450.66342578 161.60756325 453.2890625 164.23803711 C459.33474534 170.29607016 465.37574831 176.35876204 471.41650391 182.42170715 C477.40116545 188.42823831 483.38784325 194.43274659 489.37792969 200.43386841 C491.95454318 203.01692943 494.52810829 205.603001 497.1015625 208.18920898 C498.69255894 209.78384047 500.28369737 211.37833031 501.875 212.97265625 C502.93509277 214.0404985 502.93509277 214.0404985 504.01660156 215.12991333 C507.88649291 219.0002103 511.86662417 222.6593679 516.00901794 226.23486328 C519.49323749 229.32385338 522.753917 232.63196711 526.03320312 235.93554688 C526.79205307 236.69585709 527.55090302 237.4561673 528.33274841 238.23951721 C529.96688624 239.87743678 531.59986868 241.51650974 533.23179626 243.15663147 C535.8198119 245.75750347 538.41101958 248.35515761 541.00305176 250.95202637 C547.43748254 257.39977064 553.86644479 263.85295868 560.29559326 270.30596924 C565.73813615 275.7682915 571.18275468 281.22852895 576.63011169 286.68605042 C579.17348706 289.23587233 581.71381332 291.78870501 584.25402832 294.3416748 C585.82480175 295.91608334 587.3957172 297.49035019 588.96679688 299.06445312 C589.66417465 299.76699722 590.36155243 300.46954132 591.08006287 301.19337463 C594.29603487 304.40968799 597.55060647 307.52188063 600.9942627 310.4942627 C605.23207967 314.15288777 609.18199141 318.05551101 613.125 322.02734375 C613.89360352 322.79740753 614.66220703 323.56747131 615.45410156 324.36087036 C617.10952005 326.02007108 618.76378314 327.68042521 620.41699219 329.34182739 C623.03861386 331.97630318 625.66342578 334.60756325 628.2890625 337.23803711 C634.33474534 343.29607016 640.37574831 349.35876204 646.41650391 355.42170715 C652.40116545 361.42823831 658.38784325 367.43274659 664.37792969 373.43386841 C666.95454318 376.01692943 669.52810829 378.603001 672.1015625 381.18920898 C673.69255894 382.78384047 675.28369737 384.37833031 676.875 385.97265625 C677.58172852 386.68455109 678.28845703 387.39644592 679.01660156 388.12991333 C682.88649291 392.0002103 686.86662417 395.6593679 691.00901794 399.23486328 C694.49323749 402.32385338 697.753917 405.63196711 701.03320312 408.93554688 C701.79205307 409.69585709 702.55090302 410.4561673 703.33274841 411.23951721 C704.96688624 412.87743678 706.59986868 414.51650974 708.23179626 416.15663147 C710.8198119 418.75750347 713.41101958 421.35515761 716.00305176 423.95202637 C722.43748254 430.39977064 728.86644479 436.85295868 735.29559326 443.30596924 C740.73813615 448.7682915 746.18275468 454.22852895 751.63011169 459.68605042 C754.17348706 462.23587233 756.71381332 464.78870501 759.25402832 467.3416748 C760.82480175 468.91608334 762.3957172 470.49035019 763.96679688 472.06445312 C764.66417465 472.76699722 765.36155243 473.46954132 766.08006287 474.19337463 C769.29603487 477.40968799 772.55060647 480.52188063 775.9942627 483.4942627 C780.23207967 487.15288777 784.18199141 491.05551101 788.125 495.02734375 C788.89360352 495.79740753 789.66220703 496.56747131 790.45410156 497.36087036 C792.10952005 499.02007108 793.76378314 500.68042521 795.41699219 502.34182739 C798.03861386 504.97630318 800.66342578 507.60756325 803.2890625 510.23803711 C809.33474534 516.29607016 815.37574831 522.35876204 821.41650391 528.42170715 C827.40116545 534.42823831 833.38784325 540.43274659 839.37792969 546.43386841 C841.95454318 549.01692943 844.52810829 551.603001 847.1015625 554.18920898 C848.69255894 555.78384047 850.28369737 557.37833031 851.875 558.97265625 C852.58172852 559.68455109 853.28845703 560.39644592 854.01660156 561.12991333 C857.25562009 564.36927136 860.53167683 567.5062942 864 570.5 C868.23613973 574.15645168 872.1838881 578.05742156 876.125 582.02734375 C876.89360352 582.79740753 877.66220703 583.56747131 878.45410156 584.36087036 C880.10952005 586.02007108 881.76378314 587.68042521 883.41699219 589.34182739 C886.03861386 591.97630318 888.66342578 594.60756325 891.2890625 597.23803711 C897.33474534 603.29607016 903.37574831 609.35876204 909.41650391 615.42170715 C915.40116545 621.42823831 921.38784325 627.43274659 927.37792969 633.43386841 C929.95454318 636.01692943 932.52810829 638.603001 935.1015625 641.18920898 C936.69255894 642.78384047 938.28369737 644.37833031 939.875 645.97265625 C940.58172852 646.68455109 941.28845703 647.39644592 942.01660156 648.12991333 C945.88649291 652.0002103 949.86662417 655.6593679 954.00901794 659.23486328 C957.49323749 662.32385338 960.753917 665.63196711 964.03320312 668.93554688 C964.79205307 669.69585709 965.55090302 670.4561673 966.33274841 671.23951721 C967.96688624 672.87743678 969.59986868 674.51650974 971.23179626 676.15663147 C973.8198119 678.75750347 976.41101958 681.35515761 979.00305176 683.95202637 C985.43748254 690.39977064 991.86644479 696.85295868 998.29559326 703.30596924 C1003.73813615 708.7682915 1009.18275468 714.22852895 1014.63011169 719.68605042 C1017.17348706 722.23587233 1019.71381332 724.78870501 1022.25402832 727.3416748 C1023.82480175 728.91608334 1025.3957172 730.49035019 1026.96679688 732.06445312 C1027.66417465 732.76699722 1028.36155243 733.46954132 1029.08006287 734.19337463 C1032.2950562 737.40870922 1035.5485282 740.51998594 1038.99128723 743.49128723 C1043.24708532 747.16544751 1047.21277477 751.08636315 1051.17260742 755.07495117 C1051.94602982 755.84983383 1052.71945221 756.62471649 1053.51631165 757.42308044 C1055.18155886 759.09210954 1056.84565071 760.76229205 1058.50868797 762.43352318 C1061.14209286 765.07977148 1063.77867895 767.72281326 1066.41609192 770.36506653 C1072.00937876 775.96973772 1077.59874312 781.57831263 1083.1875 787.1875 C1089.67666381 793.70035386 1096.16751646 800.21150981 1102.66256142 806.71850014 C1105.25758123 809.31999296 1107.84956695 811.92448307 1110.44145203 814.52909851 C1112.03267859 816.12395765 1113.62404574 817.71867652 1115.21557617 819.31323242 C1115.93309052 820.03591309 1116.65060486 820.75859375 1117.38986206 821.50317383 C1118.05830643 822.17168869 1118.72675079 822.84020355 1119.41545105 823.52897644 C1119.99039905 824.10614505 1120.56534704 824.68331366 1121.1577177 825.27797222 C1123.01285623 827.14321894 1123.01285623 827.14321894 1125.68645477 828.54386234 C1129.38069423 832.46579157 1128.6738322 836.57396543 1128.60127258 841.76922607 C1128.60554471 842.87928646 1128.60981683 843.98934685 1128.61421841 845.13304543 C1128.6224779 848.86612099 1128.59491253 852.59808202 1128.56762695 856.33105469 C1128.56621712 859.00158731 1128.5667868 861.6720509 1128.56983948 864.34257507 C1128.5724622 870.09883997 1128.55676511 875.85482166 1128.52865028 881.61101532 C1128.48802757 889.9334709 1128.47499436 898.25578943 1128.46871033 906.57833341 C1128.45776518 920.08078299 1128.4244851 933.58308161 1128.37719727 947.08544922 C1128.33130732 960.20230351 1128.29591267 973.31911681 1128.2746582 986.43603516 C1128.27334459 987.24446006 1128.27203097 988.05288497 1128.27067754 988.8858076 C1128.26415239 992.94140812 1128.25783384 996.99700892 1128.25161803 1001.05260992 C1128.19977818 1034.70184943 1128.111707 1068.35090622 1128 1102 C1090.9188593 1103.36127513 1053.84157636 1104.39533878 1016.74035562 1105.01285444 C1012.32499153 1105.08661424 1007.90967616 1105.16298231 1003.49438477 1105.2409668 C1002.61566726 1105.25644311 1001.73694976 1105.27191943 1000.83160446 1105.28786472 C988.48374696 1105.51074921 976.14702394 1105.87437509 963.80643381 1106.35033287 C942.59557374 1107.16818097 921.39574199 1107.72645854 900.16796875 1107.76171875 C899.34997069 1107.76353077 898.53197263 1107.76534278 897.68918675 1107.76720971 C825.14492518 1107.85192335 825.14492518 1107.85192335 797.83772278 1080.97212219 C787.76583697 1070.46176603 779.24173184 1058.76518829 772.17108631 1046.05683613 C769.85598059 1042.79722422 767.41105881 1040.61717302 764.37068051 1038.06100863 C761.65264908 1035.69802205 759.08855846 1033.20260575 756.54016113 1030.66041565 C756.04255966 1030.16412182 755.54495819 1029.66782799 755.03227789 1029.15649496 C753.40569264 1027.53011974 751.78194488 1025.90094226 750.15820312 1024.27172852 C748.96927309 1023.08251811 747.78012081 1021.89352987 746.59076691 1020.70474339 C743.33838747 1017.45265826 740.0891224 1014.19747721 736.84036636 1010.94177294 C733.33022656 1007.42524002 729.81716559 1003.91162752 726.30444336 1000.39767456 C720.22214296 994.31249151 714.14162064 988.22553646 708.06225586 982.13742065 C699.26437701 973.32697106 690.46324587 964.51977602 681.66122913 955.71346056 C667.36875023 941.41391872 653.07814052 927.11251051 638.7890625 912.80957031 C637.93438794 911.95406794 637.07971338 911.09856557 636.1991396 910.21713889 C629.26467142 903.2759262 622.33029373 896.33462311 615.3959198 889.39331627 C609.33430134 883.32564514 603.27264674 877.25801012 597.2109375 871.19042969 C596.35730779 870.33597185 595.50367807 869.48151401 594.62418079 868.60116351 C580.3875108 854.35080442 566.14887485 840.10241123 551.90883636 825.85541821 C543.12960962 817.07171287 534.35216515 808.28623368 525.57701683 799.49845386 C519.56465758 793.47766414 513.55052762 787.45864706 507.53500557 781.44101739 C504.0654122 777.97008015 500.59665291 774.49831974 497.13009644 771.02434921 C493.95435775 767.8418442 490.77630135 764.66167266 487.59641933 761.48330772 C486.44894055 760.33555833 485.3023068 759.18696333 484.15662479 758.03742039 C477.26990961 751.09493053 477.26990961 751.09493053 470.0284729 744.5284729 C464.28691248 739.60998532 459.03632264 734.16708493 453.70263672 728.81616211 C452.46420907 727.57745411 451.22555923 726.33896822 449.98670769 725.10068417 C446.59750946 721.71178038 443.21142622 718.31977927 439.82585049 714.92725706 C436.16846902 711.26348448 432.50816833 707.60263042 428.84820557 703.94143677 C422.51053435 697.60088246 416.17464125 691.25855589 409.83990479 684.91506958 C400.67279579 675.73539196 391.50243633 666.55896697 382.33119082 657.38342226 C367.43974062 642.48490858 352.5501595 627.58452853 337.66210938 612.68261719 C336.32626647 611.34553257 336.32626647 611.34553257 334.96343684 609.98143613 C327.73774587 602.74900062 320.51214537 595.51647473 313.28654861 588.28394508 C306.97037158 581.96171541 300.65415842 575.63952182 294.33789062 569.31738281 C293.44841697 568.42708103 292.55894331 567.53677924 291.6425159 566.61949861 C276.80919882 551.77249347 261.9739166 536.92745344 247.13723183 522.08381367 C237.98949188 512.93159453 228.84353436 503.77760105 219.69987154 494.62130857 C213.43521419 488.34822213 207.16878732 482.07690708 200.90096807 475.80697989 C197.28555576 472.19022342 193.67097813 468.57264273 190.05860138 464.95285416 C186.74963096 461.63712016 183.43834553 458.32371628 180.12523293 455.01212132 C178.92930233 453.81591999 177.73421757 452.61887226 176.54008269 451.42087829 C168.47871434 443.33467615 160.47900316 435.49774958 151.03967285 429.01716614 C149.6847208 428.06945206 148.33074619 427.12033942 146.97760201 426.17004585 C146.26588097 425.67071549 145.55415993 425.17138512 144.82087159 424.65692353 C121.6667031 408.3189966 99.80881364 390.47803259 78.5 371.8125 C77.56615321 370.99776813 76.63230642 370.18303625 75.67016125 369.34361553 C26.17796391 326.00082109 -5.18331051 284.2781617 -9.71761775 218.27946728 C-11.62508545 188.21097188 -11.17704366 158.20524226 -9.875 128.125 C-9.80756408 126.52701846 -9.74019026 124.9290343 -9.67287827 123.33104753 C-7.914388 82.07576131 -4.68018117 41.02896596 0 0 Z " fill="#629A2F" transform="translate(857,864)"/>
<path d="M0 0 C35.77586032 -1.05948571 71.54891449 -1.86667755 107.33730642 -2.34900516 C111.58915422 -2.40651817 115.84097138 -2.46605887 120.09277344 -2.52685547 C120.9390136 -2.53892175 121.78525376 -2.55098803 122.65713756 -2.56341995 C136.25267277 -2.76207994 149.83900101 -3.12381909 163.42912348 -3.54902862 C177.43865881 -3.98361007 191.44347648 -4.23558483 205.45947111 -4.32807076 C213.31004886 -4.38485347 221.14152148 -4.51892602 228.98518753 -4.86358261 C281.79059584 -7.11759451 281.79059584 -7.11759451 302.78205226 11.79910795 C312.39280533 20.7240672 320.88432542 30.72325002 328.93671227 41.05395317 C332.55007581 45.62486702 336.51767805 49.30588524 341 53 C342.34477828 54.27216376 343.67680703 55.55827581 344.98327637 56.86975098 C345.66425888 57.55080399 346.34524139 58.23185699 347.04685974 58.93354797 C347.762939 59.65479355 348.47901825 60.37603912 349.21679688 61.11914062 C349.99515396 61.89895798 350.77351105 62.67877533 351.57545471 63.48222351 C353.25215386 65.16270537 354.92769761 66.84434068 356.60218811 68.52702332 C359.25741578 71.19510293 361.91583197 73.85996889 364.57507324 76.52404785 C370.69816102 82.65948705 376.81656876 88.79958365 382.93473053 94.93993378 C388.99592336 101.02299455 395.05913114 107.10403348 401.12574768 113.1816864 C403.73559931 115.79798651 406.34240327 118.41729699 408.94909668 121.03674316 C410.56031614 122.6515976 412.17167754 124.26631043 413.78320312 125.88085938 C414.49928238 126.60210495 415.21536163 127.32335052 415.95314026 128.06645203 C419.84356071 131.95727521 423.84195789 135.63842842 428.0066452 139.23249054 C431.52373126 142.35109386 434.81439969 145.69254232 438.125 149.02734375 C439.27790527 150.18243942 439.27790527 150.18243942 440.45410156 151.36087036 C442.10952005 153.02007108 443.76378314 154.68042521 445.41699219 156.34182739 C448.03861386 158.97630318 450.66342578 161.60756325 453.2890625 164.23803711 C459.33474534 170.29607016 465.37574831 176.35876204 471.41650391 182.42170715 C477.40116545 188.42823831 483.38784325 194.43274659 489.37792969 200.43386841 C491.95454318 203.01692943 494.52810829 205.603001 497.1015625 208.18920898 C498.69255894 209.78384047 500.28369737 211.37833031 501.875 212.97265625 C502.93509277 214.0404985 502.93509277 214.0404985 504.01660156 215.12991333 C507.88649291 219.0002103 511.86662417 222.6593679 516.00901794 226.23486328 C519.49323749 229.32385338 522.753917 232.63196711 526.03320312 235.93554688 C526.79205307 236.69585709 527.55090302 237.4561673 528.33274841 238.23951721 C529.96688624 239.87743678 531.59986868 241.51650974 533.23179626 243.15663147 C535.8198119 245.75750347 538.41101958 248.35515761 541.00305176 250.95202637 C547.43748254 257.39977064 553.86644479 263.85295868 560.29559326 270.30596924 C565.73813615 275.7682915 571.18275468 281.22852895 576.63011169 286.68605042 C579.17348706 289.23587233 581.71381332 291.78870501 584.25402832 294.3416748 C585.82480175 295.91608334 587.3957172 297.49035019 588.96679688 299.06445312 C589.66417465 299.76699722 590.36155243 300.46954132 591.08006287 301.19337463 C594.97872373 305.09244931 598.97652627 308.80952556 603.16582489 312.39532757 C606.433941 315.25451795 609.49044428 318.32784405 612.5625 321.39453125 C613.23925781 322.06796066 613.91601562 322.74139008 614.61328125 323.43522644 C616.02620184 324.84312863 617.43781191 326.25234718 618.84814453 327.6628418 C621.0170651 329.82954768 623.19389907 331.98809652 625.37109375 334.14648438 C626.74788349 335.52034481 628.12420312 336.89467656 629.5 338.26953125 C630.15299072 338.91533646 630.80598145 339.56114166 631.47875977 340.22651672 C632.07358154 340.82441513 632.66840332 341.42231354 633.28125 342.03833008 C633.80783203 342.56348709 634.33441406 343.0886441 634.87695312 343.62971497 C636 345 636 345 636 347 C544.59 347 453.18 347 359 347 C359 441.38 359 535.76 359 633 C351.1250454 626.25003891 351.1250454 626.25003891 348.25618076 623.37643528 C347.59926544 622.7208943 346.94235011 622.06535333 346.26552826 621.38994747 C345.56765873 620.68848298 344.86978919 619.98701848 344.15077209 619.26429749 C343.39089491 618.50456916 342.63101772 617.74484083 341.84811395 616.96209043 C339.31571342 614.42899831 336.78690004 611.8923558 334.25805664 609.35571289 C332.43773795 607.53347401 330.61719069 605.71146343 328.7964325 603.8896637 C324.88203775 599.97239002 320.96942163 596.05334721 317.05797005 592.13313484 C311.39455244 586.45712664 305.72786562 580.78439112 300.06029683 575.11252826 C290.85297313 565.89814576 281.64751952 556.68189759 272.44360352 547.46411133 C271.89340616 546.91308616 271.34320881 546.362061 270.77633881 545.7943381 C266.31312114 541.32437705 261.84999426 536.85432537 257.38687229 532.38426876 C253.48687958 528.47822364 249.58685097 524.57221435 245.68676758 520.66625977 C244.86293925 519.84118924 244.86293925 519.84118924 244.02246792 518.99945063 C234.85281257 509.81609187 225.68118031 500.63470996 216.50814527 491.45472711 C210.85750672 485.79961764 205.20864867 480.14274083 199.56210529 474.48354232 C195.232579 470.14456557 190.90049227 465.80815365 186.56747627 461.47266197 C184.79451665 459.6978335 183.02242012 457.92214235 181.25126266 456.14551544 C178.82856609 453.71557474 176.40276964 451.28876986 173.97621155 448.86268616 C173.28057273 448.16345238 172.58493392 447.46421861 171.86821514 446.74379593 C165.3456322 440.23480509 158.64135951 434.23611314 151.03967285 429.01716614 C149.6847208 428.06945206 148.33074619 427.12033942 146.97760201 426.17004585 C146.26588097 425.67071549 145.55415993 425.17138512 144.82087159 424.65692353 C121.6667031 408.3189966 99.80881364 390.47803259 78.5 371.8125 C77.56615321 370.99776813 76.63230642 370.18303625 75.67016125 369.34361553 C26.17796391 326.00082109 -5.18331051 284.2781617 -9.71761775 218.27946728 C-11.62508545 188.21097188 -11.17704366 158.20524226 -9.875 128.125 C-9.80756408 126.52701846 -9.74019026 124.9290343 -9.67287827 123.33104753 C-7.914388 82.07576131 -4.68018117 41.02896596 0 0 Z " fill="#F08F3B" transform="translate(857,864)"/>
<path d="M0 0 C0.78620224 0.74873886 1.57240448 1.49747772 2.38243103 2.26890564 C3.0888826 2.98059402 3.79533417 3.69228241 4.52319336 4.42553711 C5.33771469 5.24336166 6.15223602 6.06118622 6.99143982 6.90379333 C7.84891312 7.76956497 8.70638641 8.63533661 9.58984375 9.52734375 C10.97049267 10.91377998 12.35114457 12.30021326 13.73196507 13.68647861 C16.6204724 16.58803187 19.50439022 19.49414641 22.38909912 22.3994751 C24.7701747 24.79721629 27.15228214 27.19391132 29.53700256 29.58802795 C31.31692313 31.37540157 33.09459279 33.16502057 34.86961365 34.95726013 C35.68728714 35.77823685 36.50496063 36.59921356 37.34741211 37.44506836 C38.05465927 38.15755234 38.76190643 38.87003632 39.49058533 39.60411072 C41.54741717 41.56789192 43.63717003 43.43199104 45.78871155 45.28871155 C50.0540685 48.99675694 54.05285827 52.92571479 58.03320312 56.93554688 C58.79205307 57.69585709 59.55090302 58.4561673 60.33274841 59.23951721 C61.96688624 60.87743678 63.59986868 62.51650974 65.23179626 64.15663147 C67.8198119 66.75750347 70.41101958 69.35515761 73.00305176 71.95202637 C79.43748254 78.39977064 85.86644479 84.85295868 92.29559326 91.30596924 C97.73813615 96.7682915 103.18275468 102.22852895 108.63011169 107.68605042 C111.17348706 110.23587233 113.71381332 112.78870501 116.25402832 115.3416748 C117.82480175 116.91608334 119.3957172 118.49035019 120.96679688 120.06445312 C121.66417465 120.76699722 122.36155243 121.46954132 123.08006287 122.19337463 C126.29603487 125.40968799 129.55060647 128.52188063 132.9942627 131.4942627 C137.23207967 135.15288777 141.18199141 139.05551101 145.125 143.02734375 C146.27790527 144.18243942 146.27790527 144.18243942 147.45410156 145.36087036 C149.10952005 147.02007108 150.76378314 148.68042521 152.41699219 150.34182739 C155.03861386 152.97630318 157.66342578 155.60756325 160.2890625 158.23803711 C166.33474534 164.29607016 172.37574831 170.35876204 178.41650391 176.42170715 C184.40116545 182.42823831 190.38784325 188.43274659 196.37792969 194.43386841 C198.95454318 197.01692943 201.52810829 199.603001 204.1015625 202.18920898 C205.69255894 203.78384047 207.28369737 205.37833031 208.875 206.97265625 C209.93509277 208.0404985 209.93509277 208.0404985 211.01660156 209.12991333 C214.25562009 212.36927136 217.53167683 215.5062942 221 218.5 C225.23613973 222.15645168 229.1838881 226.05742156 233.125 230.02734375 C233.89360352 230.79740753 234.66220703 231.56747131 235.45410156 232.36087036 C237.10952005 234.02007108 238.76378314 235.68042521 240.41699219 237.34182739 C243.03861386 239.97630318 245.66342578 242.60756325 248.2890625 245.23803711 C254.33474534 251.29607016 260.37574831 257.35876204 266.41650391 263.42170715 C272.40116545 269.42823831 278.38784325 275.43274659 284.37792969 281.43386841 C286.95454318 284.01692943 289.52810829 286.603001 292.1015625 289.18920898 C293.69255894 290.78384047 295.28369737 292.37833031 296.875 293.97265625 C297.58172852 294.68455109 298.28845703 295.39644592 299.01660156 296.12991333 C302.88649291 300.0002103 306.86662417 303.6593679 311.00901794 307.23486328 C314.49323749 310.32385338 317.753917 313.63196711 321.03320312 316.93554688 C321.79205307 317.69585709 322.55090302 318.4561673 323.33274841 319.23951721 C324.96688624 320.87743678 326.59986868 322.51650974 328.23179626 324.15663147 C330.8198119 326.75750347 333.41101958 329.35515761 336.00305176 331.95202637 C342.43748254 338.39977064 348.86644479 344.85295868 355.29559326 351.30596924 C360.73813615 356.7682915 366.18275468 362.22852895 371.63011169 367.68605042 C374.17348706 370.23587233 376.71381332 372.78870501 379.25402832 375.3416748 C380.82480175 376.91608334 382.3957172 378.49035019 383.96679688 380.06445312 C384.66417465 380.76699722 385.36155243 381.46954132 386.08006287 382.19337463 C389.2950562 385.40870922 392.5485282 388.51998594 395.99128723 391.49128723 C400.24708532 395.16544751 404.21277477 399.08636315 408.17260742 403.07495117 C408.94602982 403.84983383 409.71945221 404.62471649 410.51631165 405.42308044 C412.18155886 407.09210954 413.84565071 408.76229205 415.50868797 410.43352318 C418.14209286 413.07977148 420.77867895 415.72281326 423.41609192 418.36506653 C429.00937876 423.96973772 434.59874312 429.57831263 440.1875 435.1875 C446.67666381 441.70035386 453.16751646 448.21150981 459.66256142 454.71850014 C462.25758123 457.31999296 464.84956695 459.92448307 467.44145203 462.52909851 C469.03267859 464.12395765 470.62404574 465.71867652 472.21557617 467.31323242 C472.93309052 468.03591309 473.65060486 468.75859375 474.38986206 469.50317383 C475.05830643 470.17168869 475.72675079 470.84020355 476.41545105 471.52897644 C476.99039905 472.10614505 477.56534704 472.68331366 478.1577177 473.27797222 C480.01285623 475.14321894 480.01285623 475.14321894 482.68645477 476.54386234 C486.38069423 480.46579157 485.6738322 484.57396543 485.60127258 489.76922607 C485.60554471 490.87928646 485.60981683 491.98934685 485.61421841 493.13304543 C485.6224779 496.86612099 485.59491253 500.59808202 485.56762695 504.33105469 C485.56621712 507.00158731 485.5667868 509.6720509 485.56983948 512.34257507 C485.5724622 518.09883997 485.55676511 523.85482166 485.52865028 529.61101532 C485.48802757 537.9334709 485.47499436 546.25578943 485.46871033 554.57833341 C485.45776518 568.08078299 485.4244851 581.58308161 485.37719727 595.08544922 C485.33130732 608.20230351 485.29591267 621.31911681 485.2746582 634.43603516 C485.27334459 635.24446006 485.27203097 636.05288497 485.27067754 636.8858076 C485.26415239 640.94140812 485.25783384 644.99700892 485.25161803 649.05260992 C485.19977818 682.70184943 485.111707 716.35090622 485 750 C483.88468212 749.05107732 482.77037035 748.10097203 481.65647888 747.15037537 C481.03583777 746.62141379 480.41519667 746.09245222 479.77574825 745.54746151 C477.48931345 743.55496632 475.35030499 741.44570324 473.22265625 739.28515625 C472.37896484 738.43373047 471.53527344 737.58230469 470.66601562 736.70507812 C468.93421549 734.94729449 467.20244453 733.18948212 465.47070312 731.43164062 C464.62572266 730.57892578 463.78074219 729.72621094 462.91015625 728.84765625 C461.78299194 727.7030896 461.78299194 727.7030896 460.63305664 726.53540039 C458.53831304 724.51834779 456.41724437 722.61307249 454.21655273 720.71655273 C449.81887495 716.89799936 445.71814523 712.8277507 441.625 708.6875 C440.85623535 707.91494873 440.0874707 707.14239746 439.29541016 706.34643555 C436.0414017 703.07623964 432.79343734 699.8000651 429.54492188 696.52441406 C427.15704648 694.11834715 424.76609207 691.71536962 422.375 689.3125 C421.65393066 688.58313232 420.93286133 687.85376465 420.18994141 687.10229492 C416.25498813 683.14862117 412.21602914 679.40841829 407.99194336 675.76708984 C404.45864965 672.63263956 401.16262784 669.26451764 397.84375 665.90625 C397.0971814 665.15589478 396.35061279 664.40553955 395.5814209 663.63244629 C392.42298888 660.45783496 389.27060721 657.27724084 386.11767578 654.09716797 C383.79930255 651.76059639 381.4778448 649.42712001 379.15625 647.09375 C378.45705444 646.3862561 377.75785889 645.67876221 377.03747559 644.9498291 C373.78778805 641.68422219 370.50376317 638.52226814 367.01367188 635.51367188 C362.67537778 631.77202888 358.65111906 627.75995317 354.625 623.6875 C353.85623535 622.91494873 353.0874707 622.14239746 352.29541016 621.34643555 C349.0414017 618.07623964 345.79343734 614.8000651 342.54492188 611.52441406 C340.15704648 609.11834715 337.76609207 606.71536962 335.375 604.3125 C334.65393066 603.58313232 333.93286133 602.85376465 333.18994141 602.10229492 C329.25065328 598.14426569 325.20733596 594.3990005 320.97851562 590.75366211 C317.52551441 587.69308613 314.30409524 584.40631028 311.0625 581.125 C310.33812744 580.39684082 309.61375488 579.66868164 308.86743164 578.91845703 C305.80457576 575.83943049 302.74777689 572.75441677 299.69042969 569.66992188 C297.44155883 567.40284542 295.18959762 565.13887034 292.9375 562.875 C292.26017822 562.18937988 291.58285645 561.50375977 290.88500977 560.79736328 C287.69072276 557.58694947 284.45820248 554.48482126 281.02734375 551.52734375 C276.68506887 547.78048726 272.65563806 543.76452418 268.625 539.6875 C267.85623535 538.91494873 267.0874707 538.14239746 266.29541016 537.34643555 C263.0414017 534.07623964 259.79343734 530.8000651 256.54492188 527.52441406 C254.15704648 525.11834715 251.76609207 522.71536962 249.375 520.3125 C248.65393066 519.58313232 247.93286133 518.85376465 247.18994141 518.10229492 C243.25498813 514.14862117 239.21602914 510.40841829 234.99194336 506.76708984 C231.45864965 503.63263956 228.16262784 500.26451764 224.84375 496.90625 C223.72389709 495.78071716 223.72389709 495.78071716 222.5814209 494.63244629 C219.42298888 491.45783496 216.27060721 488.27724084 213.11767578 485.09716797 C210.79930255 482.76059639 208.4778448 480.42712001 206.15625 478.09375 C205.45705444 477.3862561 204.75785889 476.67876221 204.03747559 475.9498291 C200.78329853 472.67971068 197.49420302 469.51358218 194 466.5 C189.74430995 462.82967184 185.79249957 458.90186495 181.84375 454.90625 C180.72389709 453.78071716 180.72389709 453.78071716 179.5814209 452.63244629 C176.42298888 449.45783496 173.27060721 446.27724084 170.11767578 443.09716797 C167.79930255 440.76059639 165.4778448 438.42712001 163.15625 436.09375 C162.45705444 435.3862561 161.75785889 434.67876221 161.03747559 433.9498291 C157.78778805 430.68422219 154.50376317 427.52226814 151.01367188 424.51367188 C146.67537778 420.77202888 142.65111906 416.75995317 138.625 412.6875 C137.47185303 411.5286731 137.47185303 411.5286731 136.29541016 410.34643555 C133.0414017 407.07623964 129.79343734 403.8000651 126.54492188 400.52441406 C124.15704648 398.11834715 121.76609207 395.71536962 119.375 393.3125 C118.65393066 392.58313232 117.93286133 391.85376465 117.18994141 391.10229492 C113.25065328 387.14426569 109.20733596 383.3990005 104.97851562 379.75366211 C101.52551441 376.69308613 98.30409524 373.40631028 95.0625 370.125 C93.97594116 369.03276123 93.97594116 369.03276123 92.86743164 367.91845703 C89.80457576 364.83943049 86.74777689 361.75441677 83.69042969 358.66992188 C81.44155883 356.40284542 79.18959762 354.13887034 76.9375 351.875 C76.26017822 351.18937988 75.58285645 350.50375977 74.88500977 349.79736328 C71.68175061 346.57793203 68.43910294 343.46741388 65 340.5 C60.8229225 336.89582823 56.93835424 333.04834002 53.0625 329.125 C51.97594116 328.03276123 51.97594116 328.03276123 50.86743164 326.91845703 C47.80457576 323.83943049 44.74777689 320.75441677 41.69042969 317.66992188 C39.44155883 315.40284542 37.18959762 313.13887034 34.9375 310.875 C34.26017822 310.18937988 33.58285645 309.50375977 32.88500977 308.79736328 C29.69072276 305.58694947 26.45820248 302.48482126 23.02734375 299.52734375 C18.68506887 295.78048726 14.65563806 291.76452418 10.625 287.6875 C9.47185303 286.5286731 9.47185303 286.5286731 8.29541016 285.34643555 C5.0414017 282.07623964 1.79343734 278.8000651 -1.45507812 275.52441406 C-3.84295352 273.11834715 -6.23390793 270.71536962 -8.625 268.3125 C-9.34606934 267.58313232 -10.06713867 266.85376465 -10.81005859 266.10229492 C-14.74501187 262.14862117 -18.78397086 258.40841829 -23.00805664 254.76708984 C-26.54135035 251.63263956 -29.83737216 248.26451764 -33.15625 244.90625 C-34.27610291 243.78071716 -34.27610291 243.78071716 -35.4185791 242.63244629 C-38.57701112 239.45783496 -41.72939279 236.27724084 -44.88232422 233.09716797 C-47.20069745 230.76059639 -49.5221552 228.42712001 -51.84375 226.09375 C-52.54294556 225.3862561 -53.24214111 224.67876221 -53.96252441 223.9498291 C-57.21221195 220.68422219 -60.49623683 217.52226814 -63.98632812 214.51367188 C-68.32462222 210.77202888 -72.34888094 206.75995317 -76.375 202.6875 C-77.52814697 201.5286731 -77.52814697 201.5286731 -78.70458984 200.34643555 C-81.9585983 197.07623964 -85.20656266 193.8000651 -88.45507812 190.52441406 C-90.84295352 188.11834715 -93.23390793 185.71536962 -95.625 183.3125 C-96.34606934 182.58313232 -97.06713867 181.85376465 -97.81005859 181.10229492 C-101.74934672 177.14426569 -105.79266404 173.3990005 -110.02148438 169.75366211 C-113.47448559 166.69308613 -116.69590476 163.40631028 -119.9375 160.125 C-120.66187256 159.39684082 -121.38624512 158.66868164 -122.13256836 157.91845703 C-125.19542424 154.83943049 -128.25222311 151.75441677 -131.30957031 148.66992188 C-133.55844117 146.40284542 -135.81040238 144.13887034 -138.0625 141.875 C-138.73982178 141.18937988 -139.41714355 140.50375977 -140.11499023 139.79736328 C-143.30927724 136.58694947 -146.54179752 133.48482126 -149.97265625 130.52734375 C-154.31493113 126.78048726 -158.34436194 122.76452418 -162.375 118.6875 C-163.52814697 117.5286731 -163.52814697 117.5286731 -164.70458984 116.34643555 C-167.9585983 113.07623964 -171.20656266 109.8000651 -174.45507812 106.52441406 C-176.84295352 104.11834715 -179.23390793 101.71536962 -181.625 99.3125 C-182.34606934 98.58313232 -183.06713867 97.85376465 -183.81005859 97.10229492 C-187.74934672 93.14426569 -191.79266404 89.3990005 -196.02148438 85.75366211 C-199.47448559 82.69308613 -202.69590476 79.40631028 -205.9375 76.125 C-206.66187256 75.39684082 -207.38624512 74.66868164 -208.13256836 73.91845703 C-211.19542424 70.83943049 -214.25222311 67.75441677 -217.30957031 64.66992188 C-219.55844117 62.40284542 -221.81040238 60.13887034 -224.0625 57.875 C-224.73982178 57.18937988 -225.41714355 56.50375977 -226.11499023 55.79736328 C-229.31232131 52.58389004 -232.5482788 49.47891653 -235.98193359 46.51806641 C-240.26817498 42.81964943 -244.24846172 38.86083212 -248.2265625 34.8359375 C-248.97787445 34.08083893 -249.7291864 33.32574036 -250.50326538 32.54776001 C-252.87964353 30.15927592 -255.25272919 27.76756315 -257.625 25.375 C-260.76008782 22.21321435 -263.89854231 19.05482636 -267.0390625 15.8984375 C-267.74858063 15.18062103 -268.45809875 14.46280457 -269.18911743 13.72323608 C-273.55177375 9.33921303 -278.04617987 5.36305611 -282.875 1.5 C-284.47598722 -0.63464963 -284.07604755 -2.39748377 -284 -5 C-248.83116999 -5.26486927 -213.66228014 -5.49800555 -178.49296844 -5.68857425 C-174.34109553 -5.71109882 -170.1892241 -5.73388617 -166.03735352 -5.75683594 C-165.2107894 -5.76140041 -164.38422528 -5.76596489 -163.53261376 -5.77066769 C-150.1482562 -5.84520588 -136.76413138 -5.94103144 -123.37997156 -6.04472218 C-109.64698738 -6.15064159 -95.9140023 -6.23368913 -82.18074805 -6.29549801 C-73.70622891 -6.33436017 -65.23221484 -6.39106777 -56.75797815 -6.47059424 C-50.94717008 -6.52341689 -45.13650968 -6.5540258 -39.32547747 -6.56717806 C-35.97226504 -6.57542322 -32.62049066 -6.59673713 -29.26742744 -6.63785744 C-25.6303598 -6.68092091 -21.99505082 -6.68689943 -18.35777283 -6.68356323 C-16.77166865 -6.71561523 -16.77166865 -6.71561523 -15.15352196 -6.74831474 C-8.15457324 -6.68780281 -4.68488331 -5.18415803 0 0 Z " fill="#80AD52" transform="translate(1500,1216)"/>
<path d="M0 0 C1.11977737 0.95966735 2.23953465 1.91935814 3.35928345 2.87905884 C3.98285044 3.41348413 4.60641743 3.94790943 5.24888039 4.49852943 C15.57080589 13.34890562 25.05778007 22.9745179 34.625 32.625 C37.71837061 35.74516961 40.81518315 38.86186503 43.9140625 41.9765625 C44.60698395 42.67778229 45.2999054 43.37900208 46.01382446 44.10147095 C49.24495023 47.34857815 52.51170949 50.49044898 55.98193359 53.48193359 C60.32150689 57.22525286 64.34742837 61.23857754 68.375 65.3125 C69.52814697 66.4713269 69.52814697 66.4713269 70.70458984 67.65356445 C73.9585983 70.92376036 77.20656266 74.1999349 80.45507812 77.47558594 C82.84295352 79.88165285 85.23390793 82.28463038 87.625 84.6875 C88.34606934 85.41686768 89.06713867 86.14623535 89.81005859 86.89770508 C93.75368211 90.86009032 97.80135705 94.61041732 102.03491211 98.25976562 C105.40758107 101.2465198 108.5544445 104.45188261 111.71875 107.65625 C112.77201477 108.7151947 112.77201477 108.7151947 113.84655762 109.79553223 C116.81383766 112.77897375 119.77505363 115.7684071 122.73681641 118.75732422 C124.91618465 120.95490579 127.09864947 123.14937938 129.28125 125.34375 C129.936698 126.00749634 130.592146 126.67124268 131.26745605 127.35510254 C134.40631675 130.51031043 137.58737692 133.55263976 140.95898438 136.45898438 C145.30524319 140.21104974 149.33984328 144.23090516 153.375 148.3125 C154.52814697 149.4713269 154.52814697 149.4713269 155.70458984 150.65356445 C158.9585983 153.92376036 162.20656266 157.1999349 165.45507812 160.47558594 C167.84295352 162.88165285 170.23390793 165.28463038 172.625 167.6875 C173.34606934 168.41686768 174.06713867 169.14623535 174.81005859 169.89770508 C178.11512263 173.21849291 181.45069347 176.44029793 185 179.5 C189.33431648 183.23642484 193.35340029 187.24461819 197.375 191.3125 C198.52814697 192.4713269 198.52814697 192.4713269 199.70458984 193.65356445 C202.9585983 196.92376036 206.20656266 200.1999349 209.45507812 203.47558594 C211.84295352 205.88165285 214.23390793 208.28463038 216.625 210.6875 C217.34606934 211.41686768 218.06713867 212.14623535 218.81005859 212.89770508 C222.06084023 216.16395226 225.33451868 219.33475273 228.8359375 222.33203125 C229.44547114 222.88777171 230.05500479 223.44351217 230.68300915 224.01609325 C232.99423152 226.0801029 232.99423152 226.0801029 235.76899433 227.81692219 C240.11143958 231.13773837 243.30051248 234.12652636 244.62807059 239.58009505 C245.66273279 247.66448505 245.37657144 255.82076174 245.2487793 263.9519043 C245.23953499 266.71214613 245.24693865 269.47228562 245.25364685 272.23252869 C245.25939548 278.1615406 245.22509188 284.08921384 245.16303062 290.01788902 C245.07336346 298.58935305 245.04495794 307.16017442 245.03116272 315.7320566 C245.00712932 329.64131745 244.93403979 343.54986587 244.82983398 357.45874023 C244.72875595 370.96423801 244.65094721 384.46954179 244.60424805 397.9753418 C244.60135809 398.8088106 244.59846813 399.6422794 244.5954906 400.50100484 C244.58113445 404.68256659 244.56723384 408.86412972 244.55355966 413.04569376 C244.43965531 447.69763688 244.24602575 482.34875254 244 517 C236.60660708 510.7336734 236.60660708 510.7336734 233.51661682 507.63014221 C232.92115051 507.03460541 232.3256842 506.4390686 231.71217346 505.82548523 C230.77292274 504.87848503 230.77292274 504.87848503 229.81469727 503.91235352 C229.13402191 503.2302179 228.45334656 502.54808228 227.75204468 501.84527588 C226.28540887 500.37485681 224.81992864 498.90328439 223.35550117 497.43066597 C221.03220314 495.09451391 218.70571666 492.76157905 216.37840271 490.4294281 C210.60008487 484.63779469 204.8272254 478.84073044 199.05419922 473.04382324 C194.16889324 468.13872421 189.28150306 463.23571965 184.39137077 458.33543205 C182.10947132 456.04709286 179.83062712 453.75574139 177.55189514 451.46424866 C176.13964566 450.04836333 174.72725373 448.63262008 173.31469727 447.21704102 C172.37848289 446.27307716 172.37848289 446.27307716 171.4233551 445.31004333 C163.81454576 437.70033745 155.76870761 431.32883039 146.97760201 425.15892982 C123.05795663 408.35127526 100.4788486 390.01241242 78.5 370.75 C77.56615321 369.93483382 76.63230642 369.11966764 75.67016125 368.27979946 C26.27935674 325.00344264 -5.17482623 283.35244155 -9.71761775 217.45337486 C-11.62466808 187.49347235 -11.17726706 157.59667577 -9.875 127.625 C-9.80756407 126.03305253 -9.74019025 124.44110242 -9.67287827 122.8491497 C-7.91456702 81.75389738 -4.68071158 40.86798422 0 0 Z " fill="#EE7913" transform="translate(857,865)"/>
<path d="M0 0 C33.98648565 -1.76003802 67.96122946 -3.08844935 101.98352383 -3.88096504 C106.04654377 -3.97595925 110.10947527 -4.07433338 114.17236328 -4.17480469 C114.98082798 -4.19474028 115.78929268 -4.21467587 116.62225631 -4.23521557 C127.93904557 -4.52126169 139.23538465 -4.98837563 150.53885919 -5.60381645 C170.01728045 -6.66408684 189.47514296 -7.37464585 208.984375 -7.421875 C209.74140174 -7.42434274 210.49842847 -7.42681048 211.27839541 -7.429353 C252.07372497 -7.50445076 283.14596456 -2.8986989 313.57037354 27.1852417 C326.59033025 40.60812842 338.16530497 55.16034778 348.89569855 70.45203525 C352.41566129 75.39604164 356.16299646 79.31546166 361 83 C363.57219148 85.41352795 366.06629147 87.90268492 368.5625 90.39453125 C369.57763672 91.40467537 369.57763672 91.40467537 370.61328125 92.43522644 C372.02620184 93.84312863 373.43781191 95.25234718 374.84814453 96.6628418 C377.0170651 98.82954768 379.19389907 100.98809652 381.37109375 103.14648438 C382.74788349 104.52034481 384.12420312 105.89467656 385.5 107.26953125 C386.15299072 107.91533646 386.80598145 108.56114166 387.47875977 109.22651672 C388.07358154 109.82441513 388.66840332 110.42231354 389.28125 111.03833008 C389.80783203 111.56348709 390.33441406 112.0886441 390.87695312 112.62971497 C392 114 392 114 392 116 C300.59 116 209.18 116 115 116 C115 210.38 115 304.76 115 402 C112.69 400.02 110.38 398.04 108 396 C105.51644754 394.37228958 105.51644754 394.37228958 103.05812073 393.11636353 C85.35575725 383.4770666 69.21461046 372.30525619 53.5625 359.625 C52.92532736 359.11215391 52.28815472 358.59930782 51.63167381 358.07092094 C20.14845821 332.56985757 0.05401275 302.11568328 -4.4288427 261.38068787 C-8.68000418 220.19724308 -7.90206044 178.57229855 -6.75 137.25 C-6.70397678 135.55822369 -6.65798732 133.86644646 -6.61203146 132.17466831 C-5.39920284 88.05607947 -3.1761256 44.02061275 0 0 Z " fill="#F2E968" transform="translate(1101,1095)"/>
<path d="M0 0 C1.11718773 0.95088544 2.23342273 1.90289029 3.34925842 2.85536194 C3.97096452 3.3853885 4.59267061 3.91541506 5.23321629 4.46150303 C7.43957368 6.38277621 9.50702536 8.41092752 11.55859375 10.49609375 C12.35716797 11.30240234 13.15574219 12.10871094 13.97851562 12.93945312 C15.61396331 14.60088092 17.24938013 16.26233911 18.88476562 17.92382812 C19.68462891 18.73142578 20.48449219 19.53902344 21.30859375 20.37109375 C22.37291626 21.4528186 22.37291626 21.4528186 23.45874023 22.55639648 C25.5091021 24.52796647 27.58869595 26.3882144 29.74243164 28.24243164 C34.30890137 32.20940531 38.56004266 36.45140307 42.8125 40.75 C43.62565674 41.56694336 44.43881348 42.38388672 45.27661133 43.22558594 C48.7217734 46.68695042 52.1609029 50.15428591 55.60058594 53.62109375 C58.12746508 56.16615188 60.65741315 58.70813131 63.1875 61.25 C63.95231689 62.02311523 64.71713379 62.79623047 65.50512695 63.59277344 C66.23948975 64.33043945 66.97385254 65.06810547 67.73046875 65.828125 C68.36364014 66.4665332 68.99681152 67.10494141 69.64916992 67.76269531 C74.23003293 72.12234103 78.91511903 76.29749713 84.06685352 79.97440052 C99.08204601 90.71526462 114.2135153 103.36618148 117.621656 122.34344536 C119.65660662 138.19376958 119.16069388 154.26800801 118.62382964 170.20305191 C118.36893773 177.98053198 118.320672 185.75581042 118.28097228 193.53687254 C118.20499702 207.40294701 117.97388131 221.26167743 117.64038086 235.1237793 C117.3174241 248.56189054 117.07054095 261.99798329 116.92260742 275.43920898 C116.9134121 276.27234642 116.90421678 277.10548385 116.89474281 277.96386787 C116.84905528 282.14489136 116.8048282 286.32592878 116.76132619 290.50697553 C116.40045954 325.00992917 115.78581861 359.5041627 115 394 C114.55202102 393.60095424 114.10404204 393.20190847 113.64248794 392.79077041 C110.26407832 389.82957557 107.02761091 387.20928024 103.05812073 385.06253052 C85.38999118 375.21906834 69.22776058 363.89918763 53.5625 351.125 C52.92532736 350.60867949 52.28815472 350.09235897 51.63167381 349.56039238 C19.82667975 323.62993762 -0.29059035 293.08800686 -4.65877187 251.82500291 C-8.57837551 212.46224099 -7.883181 172.73457728 -6.75 133.25 C-6.70397676 131.60649617 -6.65798729 129.96299139 -6.61203146 128.31948566 C-5.39987097 85.48373463 -3.17801722 42.735029 0 0 Z " fill="#F0E64A" transform="translate(1101,1103)"/>
</svg>
