<?xml version="1.0" encoding="UTF-8"?>
<svg version="1.1" xmlns="http://www.w3.org/2000/svg" width="220" height="220">
<path d="M0 0 C0.68542877 0.30099609 1.37085754 0.60199219 2.07705688 0.91210938 C4.34665278 1.91234849 6.606587 2.93273887 8.8671875 3.953125 C10.47230456 4.66461569 12.07811643 5.37454066 13.68457031 6.08300781 C17.15932156 7.61694129 20.63078749 9.15802324 24.10058594 10.703125 C30.08385437 13.36153622 36.08697899 15.9733338 42.09375 18.578125 C43.12658112 19.02601379 44.15941223 19.47390259 45.22354126 19.93536377 C47.29315067 20.83258168 49.36282185 21.72965713 51.43255615 22.62658691 C56.32387232 24.74727286 61.21296429 26.87305757 66.1015625 29 C66.94393463 29.36609375 67.78630676 29.7321875 68.65420532 30.109375 C69.45635468 30.45838867 70.25850403 30.80740234 71.08496094 31.16699219 C71.77056091 31.46514832 72.45616089 31.76330444 73.16253662 32.07049561 C77.02841909 33.76786177 80.88493472 35.48625521 84.7421875 37.203125 C84.83573802 54.01481463 84.90621905 70.82642271 84.94943619 87.63831329 C84.97003838 95.44483658 84.9981139 103.25119789 85.04394531 111.05761719 C85.08388515 117.86379022 85.10963734 124.6698459 85.11854148 131.47613287 C85.12374422 135.0781746 85.13592293 138.6798807 85.16510773 142.28181458 C85.19746748 146.30846885 85.19814235 150.33454415 85.19628906 154.36132812 C85.21067017 155.54816193 85.22505127 156.73499573 85.23986816 157.95779419 C85.2000359 165.96123342 83.98917735 171.10594109 78.92773438 177.49267578 C72.18666523 183.59612146 64.548609 186.72952685 56.2421875 190.078125 C53.93953733 191.03038687 51.63973724 191.98932602 49.33996582 192.94851685 C47.71866129 193.62427937 46.09649213 194.29797082 44.47351074 194.96969604 C34.32623178 199.17800922 24.28919221 203.63713184 14.2421875 208.078125 C11.57279004 209.25703178 8.90311423 210.43529163 6.23266602 211.61181641 C4.63425857 212.31604874 3.03640731 213.0215453 1.43920898 213.72851562 C-5.70291767 216.87627868 -11.26263255 218.48992111 -18.83251953 216.05175781 C-20.06678662 215.5181928 -21.29428662 214.96877949 -22.515625 214.40625 C-23.54376816 213.95475586 -23.54376816 213.95475586 -24.59268188 213.49414062 C-26.86227778 212.49390151 -29.122212 211.47351113 -31.3828125 210.453125 C-32.98792956 209.74163431 -34.59374143 209.03170934 -36.20019531 208.32324219 C-39.67494656 206.78930871 -43.14641249 205.24822676 -46.61621094 203.703125 C-52.59947937 201.04471378 -58.60260399 198.4329162 -64.609375 195.828125 C-65.64220612 195.38023621 -66.67503723 194.93234741 -67.73916626 194.47088623 C-69.80877567 193.57366832 -71.87844685 192.67659287 -73.94818115 191.77966309 C-78.83949732 189.65897714 -83.72858929 187.53319243 -88.6171875 185.40625 C-89.8807457 184.85710937 -89.8807457 184.85710937 -91.16983032 184.296875 C-91.97197968 183.94786133 -92.77412903 183.59884766 -93.60058594 183.23925781 C-94.28618591 182.94110168 -94.97178589 182.64294556 -95.67816162 182.33575439 C-99.54404409 180.63838823 -103.40055972 178.91999479 -107.2578125 177.203125 C-107.35136302 160.39143537 -107.42184405 143.57982729 -107.46506119 126.76793671 C-107.48566338 118.96141342 -107.5137389 111.15505211 -107.55957031 103.34863281 C-107.59951015 96.54245978 -107.62526234 89.7364041 -107.63416648 82.93011713 C-107.63936922 79.3280754 -107.65154793 75.7263693 -107.68073273 72.12443542 C-107.71309248 68.09778115 -107.71376735 64.07170585 -107.71191406 60.04492188 C-107.72629517 58.85808807 -107.74067627 57.67125427 -107.75549316 56.44845581 C-107.7156609 48.44501658 -106.50480235 43.30030891 -101.44335938 36.91357422 C-94.70229023 30.81012854 -87.064234 27.67672315 -78.7578125 24.328125 C-76.45516233 23.37586313 -74.15536224 22.41692398 -71.85559082 21.45773315 C-70.23428629 20.78197063 -68.61211713 20.10827918 -66.98913574 19.43655396 C-56.84185678 15.22824078 -46.80481721 10.76911816 -36.7578125 6.328125 C-34.08841504 5.14921822 -31.41873923 3.97095837 -28.74829102 2.79443359 C-27.14988357 2.09020126 -25.55203231 1.3847047 -23.95483398 0.67773438 C-15.09956302 -3.22506603 -8.88684498 -4.09314282 0 0 Z " fill="#0A77DF" transform="translate(121.2578125,2.796875)"/>
<path d="M0 0 C0.79664063 0.25523438 1.59328125 0.51046875 2.4140625 0.7734375 C20.25316527 6.94633338 33.21284076 21.25361268 41.38671875 37.80859375 C45.14220792 46.75754751 46.3300556 55.33995728 46.25 65 C46.25773438 65.93328125 46.26546875 66.8665625 46.2734375 67.828125 C46.22558303 84.96002659 39.15042879 100.68241335 27.4375 113.125 C11.79774256 128.00761335 -5.99966741 133.56043621 -27.32421875 133.27734375 C-45.95719036 132.65428148 -61.22385735 123.48901173 -73.75 110.125 C-88.0494424 93.55980088 -91.04334386 75.16668875 -90 54 C-87.9955964 36.95337487 -77.37398852 22.0742393 -64.6953125 11.1015625 C-47.10697017 -2.61224645 -21.26838591 -8.34766 0 0 Z " fill="#FBFCFE" transform="translate(132,49)"/>
<path d="M0 0 C0.72574219 -0.01224609 1.45148438 -0.02449219 2.19921875 -0.03710938 C8.85260443 -0.05489918 15.63033964 0.494478 20.75 5.1875 C19.8204607 11.95985772 19.8204607 11.95985772 18.9375 14.8125 C18.49137173 17.36566911 18.49137173 17.36566911 20.4375 19.75 C22.65577419 22.18313356 22.65577419 22.18313356 25 24.0625 C27.4792448 27.07301154 27.04056583 29.41014427 26.75 33.1875 C23.90971259 34.60764371 21.35593044 34.30322326 18.1875 34.375 C9.57076238 34.9406115 4.84972348 37.70976146 -0.8125 44.0625 C-3.24063519 49.34105475 -2.97098837 53.13837515 -1.0625 58.5625 C2.88234956 62.24435959 6.59313452 62.26932393 11.8515625 62.765625 C14.75 63.1875 14.75 63.1875 16.75 65.1875 C16.54681228 67.28710644 16.33097924 69.386367 16.046875 71.4765625 C15.32608679 78.05849695 15.26302904 84.72035647 16.75 91.1875 C22.38632423 90.7699945 25.03478998 89.32608592 28.79150391 84.99902344 C29.23155762 84.4630957 29.67161133 83.92716797 30.125 83.375 C30.55345215 82.85325195 30.9819043 82.33150391 31.42333984 81.79394531 C34.68286921 77.63411549 36.36245722 73.9314425 37.5 68.8125 C38.71110718 65.30028918 39.31424334 64.45055724 41.8125 62 C46.05719766 57.49710906 45.73058182 52.10033504 45.75 46.1875 C50.77237015 45.89206646 53.6607578 46.18070427 57.75 49.1875 C58.75 50.1875 58.75 50.1875 59.0625 53.375 C58.83363362 67.59014515 51.78058454 81.86319208 42.09375 91.9375 C30.15342612 103.40021092 17.93995225 107.60241962 1.48828125 107.328125 C-10.77611155 106.86676853 -21.87149188 102.17594781 -31.25 94.1875 C-30.9124145 89.91141694 -29.64655147 86.894611 -27.625 83.1875 C-26.0683124 80.1426008 -25.26218285 78.31663823 -24.9375 74.875 C-27.49235827 69.64362355 -32.75591282 67.87309845 -37.859375 65.53125 C-38.48948486 65.23661865 -39.11959473 64.9419873 -39.76879883 64.63842773 C-41.03212718 64.05346121 -42.30554986 63.48974759 -43.58862305 62.94946289 C-45.37109375 62.12890625 -45.37109375 62.12890625 -48.25 60.1875 C-49.328125 57.1328125 -49.328125 57.1328125 -49.25 54.1875 C-46.64152011 51.57902011 -44.18572456 49.75960967 -41.05859375 47.84765625 C-39.0218456 46.33021657 -39.0218456 46.33021657 -38.921875 43.8828125 C-38.94765625 43.03460938 -38.9734375 42.18640625 -39 41.3125 C-38.74914249 36.64790638 -38.74914249 36.64790638 -36.48828125 34.5625 C-34.3125 33.3125 -34.3125 33.3125 -32.16015625 32.3203125 C-29.79337882 30.91670217 -29.20911243 29.73377309 -28.25 27.1875 C-27.50989141 21.63668555 -29.34494165 18.72665368 -32.25 14.1875 C-23.05491482 5.04650355 -12.94589167 0.0112573 0 0 Z " fill="#0C6FD0" transform="translate(105.25,58.8125)"/>
</svg>
